<?xml version="1.0" encoding="UTF-8"?>
<svg id="Layer_2" data-name="Layer 2" xmlns="http://www.w3.org/2000/svg" viewBox="0 0 1054.97 499.11">
  <defs>
    <style>
      .cls-1 {
        fill: #fff;
        stroke-width: 0px;
      }
    </style>
  </defs>
  <g id="Layer_1-2" data-name="Layer 1">
    <g>
      <path class="cls-1" d="m232.92,401.36L0,298.54v-97.98l232.92-102.81v76.59L62.11,244.03v11.04l170.81,69.69v76.59Z"/>
      <path class="cls-1" d="m217,499.11L380.04,0h63.22l-163.04,499.11h-63.22Z"/>
      <path class="cls-1" d="m612.52,484.89c-34.49,0-64.98-6.14-91.48-18.42-26.51-12.28-47.31-30.06-62.39-53.34-15.09-23.28-22.63-51.72-22.63-85.34v-16.81h76.94v16.81c0,29.74,9.05,51.95,27.15,66.59,18.1,14.66,42.24,21.98,72.41,21.98s53.66-6.24,69.18-18.75c15.52-12.5,23.28-28.66,23.28-48.49,0-13.35-3.67-24.24-10.99-32.65-7.33-8.4-18-15.19-32-20.37-14.01-5.17-30.93-10.12-50.75-14.87l-19.4-3.88c-29.74-6.89-55.5-15.62-77.26-26.18-21.77-10.56-38.47-24.24-50.11-41.05-11.64-16.81-17.46-38.79-17.46-65.94s6.47-50.43,19.4-69.82c12.93-19.4,31.25-34.27,54.95-44.61,23.7-10.35,51.5-15.52,83.4-15.52s60.34,5.39,85.34,16.16c24.99,10.78,44.71,26.94,59.16,48.49,14.44,21.56,21.66,48.49,21.66,80.81v21.34h-76.94v-21.34c0-18.53-3.67-33.4-10.99-44.61-7.33-11.2-17.68-19.4-31.03-24.57-13.36-5.17-29.09-7.76-47.2-7.76-26.73,0-46.98,5.17-60.77,15.52-13.8,10.35-20.69,25-20.69,43.96,0,12.07,3.12,22.31,9.37,30.71,6.24,8.4,15.52,15.3,27.8,20.69,12.28,5.39,27.69,10.02,46.23,13.9l19.4,4.53c31.03,6.9,58.19,15.63,81.46,26.18,23.28,10.57,41.48,24.47,54.63,41.7,13.14,17.24,19.72,39.66,19.72,67.24s-7.01,51.08-21.01,71.76c-14.01,20.69-33.62,36.85-58.83,48.49-25.22,11.64-55.07,17.45-89.54,17.45Z"/>
      <path class="cls-1" d="m822.06,401.36v-76.59l170.8-69.69v-11.04l-170.8-69.69v-76.59l232.92,102.81v97.98l-232.92,102.81Z"/>
    </g>
  </g>
</svg>